<?xml version="1.0" standalone="no"?>
<!DOCTYPE svg PUBLIC "-//W3C//DTD SVG 20010904//EN"
 "http://www.w3.org/TR/2001/REC-SVG-20010904/DTD/svg10.dtd">
<svg version="1.0" xmlns="http://www.w3.org/2000/svg"
 width="362.000000pt" height="362.000000pt" viewBox="0 0 362.000000 362.000000"
 preserveAspectRatio="xMidYMid meet">
<g transform="translate(0.000000,362.000000) scale(0.100000,-0.100000)"
fill="#000000" stroke="none">
<path d="M1565 3295 c-318 -58 -572 -191 -801 -419 -179 -180 -299 -375 -372
-606 -85 -269 -86 -603 -3 -873 34 -108 92 -246 122 -288 10 -15 19 -30 19
-34 0 -3 14 -26 30 -50 26 -38 29 -47 19 -72 -10 -27 -48 -165 -110 -397 -16
-60 -27 -111 -24 -114 6 -6 55 5 275 63 74 20 168 45 208 55 l74 19 51 -31
c137 -80 312 -146 480 -180 155 -31 394 -32 552 -1 305 60 566 200 787 424
161 164 280 361 353 586 170 526 28 1113 -364 1501 -223 221 -497 363 -805
417 -108 18 -390 19 -491 0z m-166 -720 c16 -8 31 -22 35 -30 8 -22 8 -288 0
-310 -14 -34 -58 -45 -189 -45 -131 0 -175 11 -189 45 -3 9 -6 81 -6 159 0
194 2 195 193 196 93 0 136 -4 156 -15z m583 -13 c21 -21 23 -33 26 -150 2
-73 -1 -142 -7 -163 -16 -54 -44 -61 -205 -57 -186 4 -181 -2 -181 199 l0 151
29 25 c28 24 32 24 172 21 134 -3 145 -5 166 -26z m556 8 l32 -20 0 -159 0
-160 -26 -20 c-24 -19 -40 -21 -161 -21 -146 0 -185 10 -197 52 -8 32 -6 279
3 302 14 36 50 45 186 46 112 0 134 -3 163 -20z m-1140 -561 c40 -14 45 -36
40 -213 -3 -123 -5 -139 -22 -152 -15 -11 -57 -14 -173 -14 -203 0 -193 -10
-193 193 0 83 4 157 8 163 4 6 16 16 27 22 26 15 272 16 313 1z m565 2 c40
-15 49 -55 45 -204 -4 -185 5 -177 -200 -177 l-158 0 -20 33 c-17 27 -20 50
-20 153 0 132 11 181 44 194 28 12 279 12 309 1z m570 -2 c12 -7 25 -17 29
-23 4 -6 8 -80 8 -163 0 -204 11 -193 -194 -193 -206 0 -200 -7 -194 215 4
180 -2 175 190 175 86 0 148 -4 161 -11z m-1144 -560 c19 -7 36 -22 42 -36 5
-13 9 -87 9 -164 0 -136 -1 -141 -25 -165 -25 -25 -26 -25 -176 -22 -197 4
-189 -5 -189 197 0 153 3 167 45 189 26 15 253 15 294 1z m593 -17 c21 -21 23
-33 26 -150 4 -145 -6 -193 -43 -210 -33 -15 -261 -16 -303 -1 -45 15 -54 57
-50 212 3 128 3 129 32 154 28 24 32 24 172 21 134 -3 145 -5 166 -26z m547
13 c16 -8 31 -22 35 -30 3 -9 6 -83 6 -165 l0 -149 -26 -20 c-24 -19 -40 -21
-161 -21 -146 0 -185 10 -197 52 -10 40 -7 276 5 302 6 13 21 29 33 34 34 17
272 15 305 -3z"/>
</g>
</svg>
